<svg preserveAspectRatio="none" width="100%" height="100%" overflow="visible" style="display: block;" viewBox="0 0 24.4286 27" fill="none" xmlns="http://www.w3.org/2000/svg">
<g id="Bug(0)Bot Logo">
<rect id="Rectangle 6" x="6.42858" y="7.71428" width="1.28571" height="1.28571" fill="var(--fill-0, #FFFDFD)"/>
<rect id="Rectangle 7" x="7.71425" y="7.71428" width="1.28571" height="1.28571" fill="var(--fill-0, #FFFDFD)"/>
<rect id="Rectangle 8" x="8.99991" y="7.71428" width="1.28571" height="1.28571" fill="var(--fill-0, #FFFDFD)"/>
<rect id="Rectangle 9" x="11.5715" y="7.71428" width="1.28571" height="1.28571" fill="var(--fill-0, #FFFDFD)"/>
<rect id="Rectangle 11" x="12.8572" y="7.71428" width="1.28571" height="1.28571" fill="var(--fill-0, #FFFDFD)"/>
<rect id="Rectangle 12" x="14.1428" y="7.71428" width="1.28571" height="1.28571" fill="var(--fill-0, #FFFDFD)"/>
<rect id="Rectangle 13" x="15.4285" y="7.71428" width="1.28571" height="1.28571" fill="var(--fill-0, #FFFDFD)"/>
<rect id="Rectangle 14" x="16.7142" y="7.71428" width="1.28571" height="1.28571" fill="var(--fill-0, #FFFDFD)"/>
<rect id="Rectangle 10" x="10.2858" y="7.71428" width="1.28571" height="1.28571" fill="var(--fill-0, #FFFDFD)"/>
<rect id="Rectangle 55" x="5.14292" y="11.5714" width="1.28571" height="1.28571" fill="var(--fill-0, #FFFDFD)"/>
<rect id="Rectangle 63" x="6.42858" y="11.5714" width="1.28571" height="1.28571" fill="var(--fill-0, #FFFDFD)"/>
<rect id="Rectangle 56" x="7.71425" y="11.5714" width="1.28571" height="1.28571" fill="var(--fill-0, #FFFDFD)"/>
<rect id="Rectangle 57" x="8.99991" y="11.5714" width="1.28571" height="1.28571" fill="var(--fill-0, #FFFDFD)"/>
<rect id="Rectangle 58" x="10.2858" y="11.5714" width="1.28571" height="1.28571" fill="var(--fill-0, #FFFDFD)"/>
<rect id="Rectangle 65" x="5.14292" y="12.8571" width="1.28571" height="1.28571" fill="var(--fill-0, #FFFDFD)"/>
<rect id="Rectangle 66" x="6.42858" y="12.8571" width="1.28571" height="1.28571" fill="var(--fill-0, #FFFDFD)"/>
<rect id="Rectangle 67" x="7.71425" y="12.8571" width="1.28571" height="1.28571" fill="var(--fill-0, #FFFDFD)"/>
<rect id="Rectangle 68" x="8.99991" y="12.8571" width="1.28571" height="1.28571" fill="var(--fill-0, #FFFDFD)"/>
<rect id="Rectangle 69" x="10.2858" y="12.8571" width="1.28571" height="1.28571" fill="var(--fill-0, #FFFDFD)"/>
<rect id="Rectangle 70" x="5.14292" y="14.1429" width="1.28571" height="1.28571" fill="var(--fill-0, #FFFDFD)"/>
<rect id="Rectangle 75" x="3.85726" y="12.8571" width="1.28571" height="1.28571" fill="var(--fill-0, #FFFDFD)"/>
<rect id="Rectangle 180" x="2.57132" y="11.5714" width="1.28571" height="1.28571" fill="var(--fill-0, #FFFDFD)"/>
<rect id="Rectangle 188" x="1.28566" y="16.7143" width="1.28571" height="1.28571" fill="var(--fill-0, #FFFDFD)"/>
<rect id="Rectangle 189" y="18" width="1.28571" height="1.28571" fill="var(--fill-0, #FFFDFD)"/>
<rect id="Rectangle 190" y="19.2857" width="1.28571" height="1.28571" fill="var(--fill-0, #FFFDFD)"/>
<path id="Rectangle 191" d="M21.8571 16.7143H23.1428V18H21.8571V16.7143Z" fill="var(--fill-0, #FFFDFD)"/>
<rect id="Rectangle 192" x="23.1427" y="18" width="1.28571" height="1.28571" fill="var(--fill-0, #FFFDFD)"/>
<rect id="Rectangle 193" x="23.1427" y="19.2857" width="1.28571" height="1.28571" fill="var(--fill-0, #FFFDFD)"/>
<rect id="Rectangle 181" x="1.28566" y="10.2857" width="1.28571" height="1.28571" fill="var(--fill-0, #FFFDFD)"/>
<rect id="Rectangle 182" x="1.28566" y="7.71428" width="1.28571" height="1.28571" fill="var(--fill-0, #FFFDFD)"/>
<path id="Rectangle 183" d="M1.28566 9H2.57138V10.2857H1.28566V9Z" fill="var(--fill-0, #FFFDFD)"/>
<rect id="Rectangle 184" x="20.5714" y="11.5714" width="1.28571" height="1.28571" fill="var(--fill-0, #FFFDFD)"/>
<rect id="Rectangle 185" x="21.8571" y="10.2857" width="1.28571" height="1.28571" fill="var(--fill-0, #FFFDFD)"/>
<rect id="Rectangle 186" x="21.8571" y="7.71428" width="1.28571" height="1.28571" fill="var(--fill-0, #FFFDFD)"/>
<path id="Rectangle 187" d="M21.8571 9H23.1428V10.2857H21.8571V9Z" fill="var(--fill-0, #FFFDFD)"/>
<rect id="Rectangle 76" x="3.85726" y="14.1429" width="1.28571" height="1.28571" fill="var(--fill-0, #FFFDFD)"/>
<rect id="Rectangle 71" x="6.42858" y="14.1429" width="1.28571" height="1.28571" fill="var(--fill-0, #FFFDFD)"/>
<rect id="Rectangle 72" x="7.71425" y="14.1429" width="1.28571" height="1.28571" fill="var(--fill-0, #FFFDFD)"/>
<rect id="Rectangle 73" x="8.99991" y="14.1429" width="1.28571" height="1.28571" fill="var(--fill-0, #FFFDFD)"/>
<rect id="Rectangle 74" x="10.2858" y="14.1429" width="1.28571" height="1.28571" fill="var(--fill-0, #FFFDFD)"/>
<rect id="Rectangle 77" x="5.14292" y="15.4286" width="1.28571" height="1.28571" fill="var(--fill-0, #FFFDFD)"/>
<rect id="Rectangle 78" x="3.85726" y="15.4286" width="1.28571" height="1.28571" fill="var(--fill-0, #FFFDFD)"/>
<rect id="Rectangle 79" x="6.42858" y="15.4286" width="1.28571" height="1.28571" fill="var(--fill-0, #FFFDFD)"/>
<rect id="Rectangle 80" x="7.71425" y="15.4286" width="1.28571" height="1.28571" fill="var(--fill-0, #FFFDFD)"/>
<rect id="Rectangle 81" x="8.99991" y="15.4286" width="1.28571" height="1.28571" fill="var(--fill-0, #FFFDFD)"/>
<rect id="Rectangle 82" x="10.2858" y="15.4286" width="1.28571" height="1.28571" fill="var(--fill-0, #FFFDFD)"/>
<rect id="Rectangle 83" x="5.14292" y="16.7143" width="1.28571" height="1.28571" fill="var(--fill-0, #FFFDFD)"/>
<rect id="Rectangle 84" x="3.85726" y="16.7143" width="1.28571" height="1.28571" fill="var(--fill-0, #FFFDFD)"/>
<rect id="Rectangle 85" x="6.42858" y="16.7143" width="1.28571" height="1.28571" fill="var(--fill-0, #FFFDFD)"/>
<rect id="Rectangle 86" x="7.71425" y="16.7143" width="1.28571" height="1.28571" fill="var(--fill-0, #FFFDFD)"/>
<rect id="Rectangle 87" x="8.99991" y="16.7143" width="1.28571" height="1.28571" fill="var(--fill-0, #FFFDFD)"/>
<rect id="Rectangle 88" x="10.2858" y="16.7143" width="1.28571" height="1.28571" fill="var(--fill-0, #FFFDFD)"/>
<rect id="Rectangle 89" x="5.14292" y="18" width="1.28571" height="1.28571" fill="var(--fill-0, #FFFDFD)"/>
<rect id="Rectangle 90" x="3.85726" y="18" width="1.28571" height="1.28571" fill="var(--fill-0, #FFFDFD)"/>
<rect id="Rectangle 91" x="6.42858" y="18" width="1.28571" height="1.28571" fill="var(--fill-0, #FFFDFD)"/>
<rect id="Rectangle 92" x="7.71425" y="18" width="1.28571" height="1.28571" fill="var(--fill-0, #FFFDFD)"/>
<rect id="Rectangle 93" x="8.99991" y="18" width="1.28571" height="1.28571" fill="var(--fill-0, #FFFDFD)"/>
<rect id="Rectangle 94" x="10.2858" y="18" width="1.28571" height="1.28571" fill="var(--fill-0, #FFFDFD)"/>
<rect id="Rectangle 95" x="5.14292" y="19.2857" width="1.28571" height="1.28571" fill="var(--fill-0, #FFFDFD)"/>
<rect id="Rectangle 96" x="3.85726" y="19.2857" width="1.28571" height="1.28571" fill="var(--fill-0, #FFFDFD)"/>
<rect id="Rectangle 97" x="6.42858" y="19.2857" width="1.28571" height="1.28571" fill="var(--fill-0, #FFFDFD)"/>
<rect id="Rectangle 98" x="7.71425" y="19.2857" width="1.28571" height="1.28571" fill="var(--fill-0, #FFFDFD)"/>
<rect id="Rectangle 99" x="8.99991" y="19.2857" width="1.28571" height="1.28571" fill="var(--fill-0, #FFFDFD)"/>
<rect id="Rectangle 100" x="10.2858" y="19.2857" width="1.28571" height="1.28571" fill="var(--fill-0, #FFFDFD)"/>
<rect id="Rectangle 101" x="5.14292" y="20.5714" width="1.28571" height="1.28571" fill="var(--fill-0, #FFFDFD)"/>
<rect id="Rectangle 102" x="3.85726" y="20.5714" width="1.28571" height="1.28571" fill="var(--fill-0, #FFFDFD)"/>
<rect id="Rectangle 103" x="6.42858" y="20.5714" width="1.28571" height="1.28571" fill="var(--fill-0, #FFFDFD)"/>
<rect id="Rectangle 104" x="7.71425" y="20.5714" width="1.28571" height="1.28571" fill="var(--fill-0, #FFFDFD)"/>
<rect id="Rectangle 105" x="8.99991" y="20.5714" width="1.28571" height="1.28571" fill="var(--fill-0, #FFFDFD)"/>
<rect id="Rectangle 106" x="10.2858" y="20.5714" width="1.28571" height="1.28571" fill="var(--fill-0, #FFFDFD)"/>
<rect id="Rectangle 107" x="5.14292" y="21.8571" width="1.28571" height="1.28571" fill="var(--fill-0, #FFFDFD)"/>
<rect id="Rectangle 194" x="3.85726" y="23.1429" width="1.28571" height="1.28571" fill="var(--fill-0, #FFFDFD)"/>
<rect id="Rectangle 197" x="19.2858" y="23.1429" width="1.28571" height="1.28571" fill="var(--fill-0, #FFFDFD)"/>
<rect id="Rectangle 198" x="20.5714" y="24.4286" width="1.28571" height="1.28571" fill="var(--fill-0, #FFFDFD)"/>
<rect id="Rectangle 199" x="20.5714" y="25.7143" width="1.28571" height="1.28571" fill="var(--fill-0, #FFFDFD)"/>
<rect id="Rectangle 195" x="2.57132" y="24.4286" width="1.28571" height="1.28571" fill="var(--fill-0, #FFFDFD)"/>
<rect id="Rectangle 196" x="2.57132" y="25.7143" width="1.28571" height="1.28571" fill="var(--fill-0, #FFFDFD)"/>
<rect id="Rectangle 109" x="6.42858" y="21.8571" width="1.28571" height="1.28571" fill="var(--fill-0, #FFFDFD)"/>
<rect id="Rectangle 110" x="7.71425" y="21.8571" width="1.28571" height="1.28571" fill="var(--fill-0, #FFFDFD)"/>
<rect id="Rectangle 111" x="8.99991" y="21.8571" width="1.28571" height="1.28571" fill="var(--fill-0, #FFFDFD)"/>
<rect id="Rectangle 112" x="10.2858" y="21.8571" width="1.28571" height="1.28571" fill="var(--fill-0, #FFFDFD)"/>
<rect id="Rectangle 113" x="6.42858" y="23.1429" width="1.28571" height="1.28571" fill="var(--fill-0, #FFFDFD)"/>
<rect id="Rectangle 114" x="7.71425" y="23.1429" width="1.28571" height="1.28571" fill="var(--fill-0, #FFFDFD)"/>
<rect id="Rectangle 115" x="8.99991" y="23.1429" width="1.28571" height="1.28571" fill="var(--fill-0, #FFFDFD)"/>
<rect id="Rectangle 116" x="10.2858" y="23.1429" width="1.28571" height="1.28571" fill="var(--fill-0, #FFFDFD)"/>
<rect id="Rectangle 117" x="7.71425" y="24.4286" width="1.28571" height="1.28571" fill="var(--fill-0, #FFFDFD)"/>
<rect id="Rectangle 118" x="8.99991" y="24.4286" width="1.28571" height="1.28571" fill="var(--fill-0, #FFFDFD)"/>
<rect id="Rectangle 119" x="10.2858" y="24.4286" width="1.28571" height="1.28571" fill="var(--fill-0, #FFFDFD)"/>
<rect id="Rectangle 177" x="12.8572" y="24.4286" width="1.28571" height="1.28571" fill="var(--fill-0, #FFFDFD)"/>
<rect id="Rectangle 178" x="14.1428" y="24.4286" width="1.28571" height="1.28571" fill="var(--fill-0, #FFFDFD)"/>
<rect id="Rectangle 179" x="15.4285" y="24.4286" width="1.28571" height="1.28571" fill="var(--fill-0, #FFFDFD)"/>
<rect id="Rectangle 59" x="12.8572" y="11.5714" width="1.28571" height="1.28571" fill="var(--fill-0, #FFFDFD)"/>
<rect id="Rectangle 60" x="14.1428" y="11.5714" width="1.28571" height="1.28571" fill="var(--fill-0, #FFFDFD)"/>
<rect id="Rectangle 61" x="15.4285" y="11.5714" width="1.28571" height="1.28571" fill="var(--fill-0, #FFFDFD)"/>
<rect id="Rectangle 62" x="16.7142" y="11.5714" width="1.28571" height="1.28571" fill="var(--fill-0, #FFFDFD)"/>
<rect id="Rectangle 64" x="18.0001" y="11.5714" width="1.28571" height="1.28571" fill="var(--fill-0, #FFFDFD)"/>
<rect id="Rectangle 120" x="12.8572" y="12.8571" width="1.28571" height="1.28571" fill="var(--fill-0, #FFFDFD)"/>
<rect id="Rectangle 121" x="14.1428" y="12.8571" width="1.28571" height="1.28571" fill="var(--fill-0, #FFFDFD)"/>
<rect id="Rectangle 122" x="15.4285" y="12.8571" width="1.28571" height="1.28571" fill="var(--fill-0, #FFFDFD)"/>
<rect id="Rectangle 123" x="16.7142" y="12.8571" width="1.28571" height="1.28571" fill="var(--fill-0, #FFFDFD)"/>
<rect id="Rectangle 124" x="18.0001" y="12.8571" width="1.28571" height="1.28571" fill="var(--fill-0, #FFFDFD)"/>
<rect id="Rectangle 125" x="19.2858" y="12.8571" width="1.28571" height="1.28571" fill="var(--fill-0, #FFFDFD)"/>
<rect id="Rectangle 126" x="12.8572" y="14.1429" width="1.28571" height="1.28571" fill="var(--fill-0, #FFFDFD)"/>
<rect id="Rectangle 127" x="14.1428" y="14.1429" width="1.28571" height="1.28571" fill="var(--fill-0, #FFFDFD)"/>
<rect id="Rectangle 128" x="15.4285" y="14.1429" width="1.28571" height="1.28571" fill="var(--fill-0, #FFFDFD)"/>
<rect id="Rectangle 129" x="16.7142" y="14.1429" width="1.28571" height="1.28571" fill="var(--fill-0, #FFFDFD)"/>
<rect id="Rectangle 130" x="18.0001" y="14.1429" width="1.28571" height="1.28571" fill="var(--fill-0, #FFFDFD)"/>
<rect id="Rectangle 131" x="19.2858" y="14.1429" width="1.28571" height="1.28571" fill="var(--fill-0, #FFFDFD)"/>
<rect id="Rectangle 132" x="12.8572" y="15.4286" width="1.28571" height="1.28571" fill="var(--fill-0, #FFFDFD)"/>
<rect id="Rectangle 133" x="14.1428" y="15.4286" width="1.28571" height="1.28571" fill="var(--fill-0, #FFFDFD)"/>
<rect id="Rectangle 134" x="15.4285" y="15.4286" width="1.28571" height="1.28571" fill="var(--fill-0, #FFFDFD)"/>
<rect id="Rectangle 135" x="16.7142" y="15.4286" width="1.28571" height="1.28571" fill="var(--fill-0, #FFFDFD)"/>
<rect id="Rectangle 136" x="18.0001" y="15.4286" width="1.28571" height="1.28571" fill="var(--fill-0, #FFFDFD)"/>
<rect id="Rectangle 137" x="19.2858" y="15.4286" width="1.28571" height="1.28571" fill="var(--fill-0, #FFFDFD)"/>
<rect id="Rectangle 138" x="12.8572" y="16.7143" width="1.28571" height="1.28571" fill="var(--fill-0, #FFFDFD)"/>
<rect id="Rectangle 139" x="14.1428" y="16.7143" width="1.28571" height="1.28571" fill="var(--fill-0, #FFFDFD)"/>
<rect id="Rectangle 140" x="15.4285" y="16.7143" width="1.28571" height="1.28571" fill="var(--fill-0, #FFFDFD)"/>
<rect id="Rectangle 141" x="16.7142" y="16.7143" width="1.28571" height="1.28571" fill="var(--fill-0, #FFFDFD)"/>
<rect id="Rectangle 142" x="18.0001" y="16.7143" width="1.28571" height="1.28571" fill="var(--fill-0, #FFFDFD)"/>
<rect id="Rectangle 143" x="19.2858" y="16.7143" width="1.28571" height="1.28571" fill="var(--fill-0, #FFFDFD)"/>
<rect id="Rectangle 144" x="12.8572" y="12.8571" width="1.28571" height="1.28571" fill="var(--fill-0, #FFFDFD)"/>
<rect id="Rectangle 145" x="14.1428" y="12.8571" width="1.28571" height="1.28571" fill="var(--fill-0, #FFFDFD)"/>
<rect id="Rectangle 146" x="15.4285" y="12.8571" width="1.28571" height="1.28571" fill="var(--fill-0, #FFFDFD)"/>
<rect id="Rectangle 147" x="16.7142" y="12.8571" width="1.28571" height="1.28571" fill="var(--fill-0, #FFFDFD)"/>
<rect id="Rectangle 148" x="18.0001" y="12.8571" width="1.28571" height="1.28571" fill="var(--fill-0, #FFFDFD)"/>
<rect id="Rectangle 149" x="19.2858" y="12.8571" width="1.28571" height="1.28571" fill="var(--fill-0, #FFFDFD)"/>
<rect id="Rectangle 150" x="12.8572" y="18" width="1.28571" height="1.28571" fill="var(--fill-0, #FFFDFD)"/>
<rect id="Rectangle 151" x="14.1428" y="18" width="1.28571" height="1.28571" fill="var(--fill-0, #FFFDFD)"/>
<rect id="Rectangle 152" x="15.4285" y="18" width="1.28571" height="1.28571" fill="var(--fill-0, #FFFDFD)"/>
<rect id="Rectangle 153" x="16.7142" y="18" width="1.28571" height="1.28571" fill="var(--fill-0, #FFFDFD)"/>
<rect id="Rectangle 154" x="18.0001" y="18" width="1.28571" height="1.28571" fill="var(--fill-0, #FFFDFD)"/>
<rect id="Rectangle 155" x="19.2858" y="18" width="1.28571" height="1.28571" fill="var(--fill-0, #FFFDFD)"/>
<rect id="Rectangle 156" x="12.8572" y="19.2857" width="1.28571" height="1.28571" fill="var(--fill-0, #FFFDFD)"/>
<rect id="Rectangle 157" x="14.1428" y="19.2857" width="1.28571" height="1.28571" fill="var(--fill-0, #FFFDFD)"/>
<rect id="Rectangle 158" x="15.4285" y="19.2857" width="1.28571" height="1.28571" fill="var(--fill-0, #FFFDFD)"/>
<rect id="Rectangle 159" x="16.7142" y="19.2857" width="1.28571" height="1.28571" fill="var(--fill-0, #FFFDFD)"/>
<rect id="Rectangle 160" x="18.0001" y="19.2857" width="1.28571" height="1.28571" fill="var(--fill-0, #FFFDFD)"/>
<rect id="Rectangle 161" x="19.2858" y="19.2857" width="1.28571" height="1.28571" fill="var(--fill-0, #FFFDFD)"/>
<rect id="Rectangle 162" x="12.8572" y="20.5714" width="1.28571" height="1.28571" fill="var(--fill-0, #FFFDFD)"/>
<rect id="Rectangle 163" x="14.1428" y="20.5714" width="1.28571" height="1.28571" fill="var(--fill-0, #FFFDFD)"/>
<rect id="Rectangle 164" x="15.4285" y="20.5714" width="1.28571" height="1.28571" fill="var(--fill-0, #FFFDFD)"/>
<rect id="Rectangle 165" x="16.7142" y="20.5714" width="1.28571" height="1.28571" fill="var(--fill-0, #FFFDFD)"/>
<rect id="Rectangle 167" x="12.8572" y="23.1429" width="1.28571" height="1.28571" fill="var(--fill-0, #FFFDFD)"/>
<rect id="Rectangle 168" x="14.1428" y="23.1429" width="1.28571" height="1.28571" fill="var(--fill-0, #FFFDFD)"/>
<rect id="Rectangle 169" x="15.4285" y="23.1429" width="1.28571" height="1.28571" fill="var(--fill-0, #FFFDFD)"/>
<rect id="Rectangle 170" x="16.7142" y="23.1429" width="1.28571" height="1.28571" fill="var(--fill-0, #FFFDFD)"/>
<rect id="Rectangle 173" x="12.8572" y="21.8571" width="1.28571" height="1.28571" fill="var(--fill-0, #FFFDFD)"/>
<rect id="Rectangle 174" x="14.1428" y="21.8571" width="1.28571" height="1.28571" fill="var(--fill-0, #FFFDFD)"/>
<rect id="Rectangle 175" x="15.4285" y="21.8571" width="1.28571" height="1.28571" fill="var(--fill-0, #FFFDFD)"/>
<rect id="Rectangle 176" x="16.7142" y="21.8571" width="1.28571" height="1.28571" fill="var(--fill-0, #FFFDFD)"/>
<rect id="Rectangle 172" x="18.0001" y="21.8571" width="1.28571" height="1.28571" fill="var(--fill-0, #FFFDFD)"/>
<rect id="Rectangle 166" x="18.0001" y="20.5714" width="1.28571" height="1.28571" fill="var(--fill-0, #FFFDFD)"/>
<rect id="Rectangle 171" x="19.2858" y="20.5714" width="1.28571" height="1.28571" fill="var(--fill-0, #FFFDFD)"/>
<rect id="Rectangle 16" x="6.42858" y="6.42857" width="1.28571" height="1.28571" fill="var(--fill-0, #FFFDFD)"/>
<rect id="Rectangle 17" x="7.71425" y="6.42857" width="1.28571" height="1.28571" fill="var(--fill-0, #FFFDFD)"/>
<rect id="Rectangle 18" x="8.99991" y="6.42857" width="1.28571" height="1.28571" fill="var(--fill-0, #FFFDFD)"/>
<rect id="Rectangle 19" x="11.5715" y="6.42857" width="1.28571" height="1.28571" fill="var(--fill-0, #FFFDFD)"/>
<rect id="Rectangle 20" x="12.8572" y="6.42857" width="1.28571" height="1.28571" fill="var(--fill-0, #FFFDFD)"/>
<rect id="Rectangle 21" x="14.1428" y="6.42857" width="1.28571" height="1.28571" fill="var(--fill-0, #FFFDFD)"/>
<rect id="Rectangle 22" x="15.4285" y="6.42857" width="1.28571" height="1.28571" fill="var(--fill-0, #FFFDFD)"/>
<rect id="Rectangle 23" x="16.7142" y="6.42857" width="1.28571" height="1.28571" fill="var(--fill-0, #FFFDFD)"/>
<rect id="Rectangle 25" x="10.2858" y="6.42857" width="1.28571" height="1.28571" fill="var(--fill-0, #FFFDFD)"/>
<rect id="Rectangle 26" x="6.42858" y="5.14286" width="1.28571" height="1.28571" fill="var(--fill-0, #FFFDFD)"/>
<rect id="Rectangle 27" x="7.71425" y="5.14286" width="1.28571" height="1.28571" fill="var(--fill-0, #FFFDFD)"/>
<rect id="Rectangle 28" x="8.99991" y="5.14286" width="1.28571" height="1.28571" fill="var(--fill-0, #FFFDFD)"/>
<rect id="Rectangle 29" x="11.5715" y="5.14286" width="1.28571" height="1.28571" fill="var(--fill-0, #FFFDFD)"/>
<rect id="Rectangle 30" x="12.8572" y="5.14286" width="1.28571" height="1.28571" fill="var(--fill-0, #FFFDFD)"/>
<rect id="Rectangle 31" x="14.1428" y="5.14286" width="1.28571" height="1.28571" fill="var(--fill-0, #FFFDFD)"/>
<rect id="Rectangle 32" x="15.4285" y="5.14286" width="1.28571" height="1.28571" fill="var(--fill-0, #FFFDFD)"/>
<rect id="Rectangle 33" x="16.7142" y="5.14286" width="1.28571" height="1.28571" fill="var(--fill-0, #FFFDFD)"/>
<rect id="Rectangle 35" x="10.2858" y="5.14286" width="1.28571" height="1.28571" fill="var(--fill-0, #FFFDFD)"/>
<rect id="Rectangle 36" x="6.42858" y="3.85714" width="1.28571" height="1.28571" fill="var(--fill-0, #FFFDFD)"/>
<rect id="Rectangle 37" x="7.71425" y="3.85714" width="1.28571" height="1.28571" fill="var(--fill-0, #FFFDFD)"/>
<rect id="Rectangle 38" x="8.99991" y="3.85714" width="1.28571" height="1.28571" fill="var(--fill-0, #FFFDFD)"/>
<rect id="Rectangle 39" x="11.5715" y="3.85714" width="1.28571" height="1.28571" fill="var(--fill-0, #FFFDFD)"/>
<rect id="Rectangle 40" x="12.8572" y="3.85714" width="1.28571" height="1.28571" fill="var(--fill-0, #FFFDFD)"/>
<rect id="Rectangle 41" x="14.1428" y="3.85714" width="1.28571" height="1.28571" fill="var(--fill-0, #FFFDFD)"/>
<rect id="Rectangle 42" x="15.4285" y="3.85714" width="1.28571" height="1.28571" fill="var(--fill-0, #FFFDFD)"/>
<rect id="Rectangle 43" x="16.7142" y="3.85714" width="1.28571" height="1.28571" fill="var(--fill-0, #FFFDFD)"/>
<rect id="Rectangle 45" x="10.2858" y="3.85714" width="1.28571" height="1.28571" fill="var(--fill-0, #FFFDFD)"/>
<rect id="Rectangle 46" x="8.99991" y="2.57143" width="1.28571" height="1.28571" fill="var(--fill-0, #FFFDFD)"/>
<rect id="Rectangle 53" x="7.71425" y="1.28571" width="1.28571" height="1.28571" fill="var(--fill-0, #FFFDFD)"/>
<rect id="Rectangle 54" x="6.42858" width="1.28571" height="1.28571" fill="var(--fill-0, #FFFDFD)"/>
<rect id="Rectangle 47" x="11.5715" y="2.57143" width="1.28571" height="1.28571" fill="var(--fill-0, #FFFDFD)"/>
<rect id="Rectangle 48" x="12.8572" y="2.57143" width="1.28571" height="1.28571" fill="var(--fill-0, #FFFDFD)"/>
<rect id="Rectangle 49" x="14.1428" y="2.57143" width="1.28571" height="1.28571" fill="var(--fill-0, #FFFDFD)"/>
<rect id="Rectangle 51" x="15.4285" y="1.28571" width="1.28571" height="1.28571" fill="var(--fill-0, #FFFDFD)"/>
<rect id="Rectangle 52" x="16.7142" width="1.28571" height="1.28571" fill="var(--fill-0, #FFFDFD)"/>
<rect id="Rectangle 50" x="10.2858" y="2.57143" width="1.28571" height="1.28571" fill="var(--fill-0, #FFFDFD)"/>
</g>
</svg>
